<svg width="11" height="13" viewBox="0 0 11 13" fill="none" xmlns="http://www.w3.org/2000/svg">
<mask id="path-1-outside-1_15_265" maskUnits="userSpaceOnUse" x="-1" y="-1.59998" width="13" height="16" fill="black">
<rect fill="white" x="-1" y="-1.59998" width="13" height="16"/>
<path d="M0.216 12.416V0.192024L10.664 6.32002L0.216 12.416Z"/>
</mask>
<path d="M0.216 12.416V0.192024L10.664 6.32002L0.216 12.416Z" fill="#E73118"/>
<path d="M0.216 12.416H-0.784C-0.784 12.7741 -0.592536 13.1049 -0.282019 13.2832C0.0284972 13.4615 0.410667 13.4602 0.719953 13.2798L0.216 12.416ZM0.216 0.192024L0.721923 -0.670554C0.412697 -0.851923 0.0300441 -0.853889 -0.28103 -0.67571C-0.592103 -0.49753 -0.784 -0.166466 -0.784 0.192024H0.216ZM10.664 6.32002L11.168 7.18376C11.4748 7.00474 11.6636 6.67639 11.664 6.32117C11.6644 5.96594 11.4763 5.63716 11.1699 5.45745L10.664 6.32002ZM1.216 12.416V0.192024H-0.784V12.416H1.216ZM-0.289923 1.0546L10.1581 7.1826L11.1699 5.45745L0.721923 -0.670554L-0.289923 1.0546ZM10.16 5.45629L-0.287953 11.5523L0.719953 13.2798L11.168 7.18376L10.16 5.45629Z" fill="#2EA7E0" mask="url(#path-1-outside-1_15_265)"/>
</svg>
