<svg width="45" height="25" viewBox="0 0 45 25" fill="none" xmlns="http://www.w3.org/2000/svg">
<rect x="0.5" y="0.5" width="44" height="24" rx="12" fill="white" stroke="#2EA7E0"/>
<path d="M19.7405 12.3503C19.7405 15.8583 16.8876 18.7039 13.3705 18.7039C4.92169 18.3678 4.92503 6.33283 13.3705 6C16.8876 6 19.7405 8.84566 19.7405 12.3536V12.3503Z" stroke="#359DD1" stroke-width="0.75" stroke-miterlimit="10"/>
<g style="mix-blend-mode:multiply" opacity="0.4">
<path d="M19.7405 12.3503C19.7405 15.8583 16.8876 18.7039 13.3705 18.7039C4.92169 18.3678 4.92503 6.33283 13.3705 6C16.8876 6 19.7405 8.84566 19.7405 12.3536V12.3503Z" stroke="#7ECEF4" stroke-width="0.75" stroke-miterlimit="10"/>
</g>
<path d="M13.3691 18.7039C18.5813 18.4044 18.5779 6.29621 13.3691 6" stroke="#359DD1" stroke-width="0.75" stroke-miterlimit="10"/>
<path d="M13.3707 18.7039C8.15861 18.4011 8.16195 6.29621 13.3707 6" stroke="#359DD1" stroke-width="0.75" stroke-miterlimit="10"/>
<path d="M13.3691 6V18.6873" stroke="#359DD1" stroke-width="0.75" stroke-miterlimit="10"/>
<path d="M7 12.3503H19.7367" stroke="#359DD1" stroke-width="0.75" stroke-miterlimit="10"/>
<path d="M8.36133 8.42639H18.3785" stroke="#359DD1" stroke-width="0.75" stroke-miterlimit="10"/>
<path d="M8.36133 16.2775H18.3785" stroke="#359DD1" stroke-width="0.75" stroke-miterlimit="10"/>
<path d="M19.7405 12.3503C19.7405 15.8583 16.8876 18.7039 13.3705 18.7039C4.92169 18.3678 4.92503 6.33283 13.3705 6C16.8876 6 19.7405 8.84566 19.7405 12.3536V12.3503Z" stroke="#359DD1" stroke-width="0.75" stroke-miterlimit="10"/>
<path d="M25.3891 14.65H28.3691V16H23.5891V8.2H28.2791V9.55H25.3891V11.4H27.9891V12.7H25.3891V14.65ZM34.578 8.2H36.198V16H33.598L31.938 11.35C31.748 10.83 31.608 10.29 31.488 9.75H31.398C31.528 11.03 31.588 12.83 31.588 13.92V16H29.968V8.2H32.568L34.228 12.85C34.418 13.37 34.568 13.91 34.688 14.45H34.778C34.648 13.16 34.578 11.79 34.578 10.49V8.2Z" fill="#2EA7E0"/>
</svg>
