<svg width="15" height="15" viewBox="0 0 15 15" fill="none" xmlns="http://www.w3.org/2000/svg">
<g id="Group">
<g id="&#227;&#131;&#172;&#227;&#130;&#164;&#227;&#131;&#164;&#227;&#131;&#188; 1">
<g id="Group_2">
<g id="Group_3">
<path id="Vector" d="M13.74 7.35031C13.74 10.8583 10.887 13.7039 7.37 13.7039C-1.07884 13.3678 -1.0755 1.33283 7.37 1C10.887 1 13.74 3.84566 13.74 7.35363V7.35031Z" stroke="#359DD1" stroke-width="0.75" stroke-miterlimit="10"/>
<g id="Group_4">
<g id="Group_5" style="mix-blend-mode:multiply" opacity="0.4">
<path id="Vector" d="M13.74 7.35031C13.74 10.8583 10.887 13.7039 7.37 13.7039C-1.07884 13.3678 -1.0755 1.33283 7.37 1C10.887 1 13.74 3.84566 13.74 7.35363V7.35031Z" stroke="#7ECEF4" stroke-width="0.75" stroke-miterlimit="10"/>
</g>
</g>
</g>
<path id="Vector" d="M7.37 13.7039C12.5821 13.4044 12.5788 1.29621 7.37 1" stroke="#359DD1" stroke-width="0.75" stroke-miterlimit="10"/>
<path id="Vector" d="M7.37001 13.7039C2.15788 13.4011 2.16122 1.29621 7.37001 1" stroke="#359DD1" stroke-width="0.75" stroke-miterlimit="10"/>
<path id="Vector" d="M7.37 1V13.6873" stroke="#359DD1" stroke-width="0.75" stroke-miterlimit="10"/>
<path id="Vector" d="M1 7.35034H13.7367" stroke="#359DD1" stroke-width="0.75" stroke-miterlimit="10"/>
<path id="Vector" d="M2.36142 3.42639H12.3786" stroke="#359DD1" stroke-width="0.75" stroke-miterlimit="10"/>
<path id="Vector" d="M2.36142 11.2775H12.3786" stroke="#359DD1" stroke-width="0.75" stroke-miterlimit="10"/>
<path id="Vector" d="M13.74 7.35031C13.74 10.8583 10.887 13.7039 7.37 13.7039C-1.07884 13.3678 -1.0755 1.33283 7.37 1C10.887 1 13.74 3.84566 13.74 7.35363V7.35031Z" stroke="#359DD1" stroke-width="0.75" stroke-miterlimit="10"/>
</g>
</g>
</g>
</svg>
