<svg width="62" height="28" viewBox="0 0 62 28" fill="none" xmlns="http://www.w3.org/2000/svg">
<g filter="url(#filter0_d_453_13026)">
<rect x="4" width="54" height="20" rx="3" fill="white"/>
<rect x="4.5" y="0.5" width="53" height="19" rx="2.5" stroke="#2EA7E0"/>
</g>
<path d="M12.5252 15V6.108H14.4932L16.0052 10.272C16.1972 10.824 16.3652 11.412 16.5452 11.976H16.6052C16.7972 11.412 16.9532 10.824 17.1452 10.272L18.6212 6.108H20.5892V15H18.9692V11.292C18.9692 10.452 19.1012 9.216 19.1972 8.376H19.1372L18.4172 10.464L17.0492 14.196H16.0292L14.6492 10.464L13.9412 8.376H13.8932C13.9772 9.216 14.1212 10.452 14.1212 11.292V15H12.5252ZM25.2994 10.368L25.0354 11.34H27.1474L26.8834 10.368C26.6074 9.444 26.3674 8.424 26.1154 7.464H26.0554C25.8274 8.436 25.5634 9.444 25.2994 10.368ZM22.2274 15L25.0714 6.108H27.1594L30.0154 15H28.1554L27.5314 12.72H24.6514L24.0274 15H22.2274ZM31.6549 15V6.108H34.5709C36.5389 6.108 38.0509 6.804 38.0509 8.904C38.0509 10.932 36.5269 11.844 34.6189 11.844H33.4309V15H31.6549ZM33.4309 10.44H34.4989C35.7229 10.44 36.3109 9.924 36.3109 8.904C36.3109 7.872 35.6629 7.524 34.4389 7.524H33.4309V10.44Z" fill="#2EA7E0"/>
<g clip-path="url(#clip0_453_13026)">
<path d="M40.6637 16C40.2976 16 40 15.7021 40 15.3363V5.77388C40 5.40773 40.2976 5.11014 40.6637 5.11014H45.1438V6.43762H41.3275V14.6725H49.5624V10.8562H50.8899V15.3359C50.8899 15.5133 50.821 15.6798 50.6955 15.8053C50.57 15.9307 50.4036 15.9997 50.2261 15.9997H40.6637V16Z" fill="#2EA7E0"/>
<path d="M44.9948 11.6009C44.8343 11.6009 44.6841 11.539 44.5721 11.427C44.3363 11.1912 44.3413 10.8028 44.583 10.5611L50.0442 5.10023L47.1945 5.07619C46.9139 5.07372 46.6849 4.86095 46.6626 4.58104C46.6506 4.42942 46.7004 4.28451 46.8036 4.17283C46.9061 4.0615 47.0464 4 47.1984 4L51.6951 4.03888C51.84 4.04029 51.9587 4.15904 51.9598 4.3036L51.999 8.79569C52.0005 8.94024 51.945 9.07666 51.8432 9.17916C51.7414 9.28201 51.606 9.33856 51.4618 9.33856C51.447 9.33856 51.4321 9.33785 51.4173 9.33679C51.1374 9.31417 50.9246 9.0855 50.9225 8.80488L50.8981 5.95517L45.4376 11.4157C45.3185 11.5348 45.1612 11.6005 44.9944 11.6005L44.9948 11.6009Z" fill="#2EA7E0"/>
</g>
<defs>
<filter id="filter0_d_453_13026" x="0" y="0" width="62" height="28" filterUnits="userSpaceOnUse" color-interpolation-filters="sRGB">
<feFlood flood-opacity="0" result="BackgroundImageFix"/>
<feColorMatrix in="SourceAlpha" type="matrix" values="0 0 0 0 0 0 0 0 0 0 0 0 0 0 0 0 0 0 127 0" result="hardAlpha"/>
<feOffset dy="4"/>
<feGaussianBlur stdDeviation="2"/>
<feComposite in2="hardAlpha" operator="out"/>
<feColorMatrix type="matrix" values="0 0 0 0 0 0 0 0 0 0 0 0 0 0 0 0 0 0 0.25 0"/>
<feBlend mode="normal" in2="BackgroundImageFix" result="effect1_dropShadow_453_13026"/>
<feBlend mode="normal" in="SourceGraphic" in2="effect1_dropShadow_453_13026" result="shape"/>
</filter>
<clipPath id="clip0_453_13026">
<rect width="12" height="12" fill="white" transform="translate(40 4)"/>
</clipPath>
</defs>
</svg>
