<svg width="37" height="37" viewBox="0 0 37 37" fill="none" xmlns="http://www.w3.org/2000/svg">
<circle cx="18.5" cy="18.5" r="18" fill="white" stroke="#2EA7E0"/>
<path d="M9.96977 26.1H11.2948V30H10.4698V28.475C10.4698 27.94 10.4798 27.41 10.5248 26.875H10.4748L9.72977 30H8.99477L8.23477 26.875H8.18477C8.22477 27.405 8.23477 27.93 8.23477 28.475V30H7.40977V26.1H8.77977L9.15477 27.64C9.25477 28.04 9.33977 28.59 9.36477 28.97H9.41477C9.43477 28.59 9.51477 28.03 9.60477 27.645L9.96977 26.1ZM15.4624 26.1L14.1924 28.735V30H13.2624V28.735L11.9924 26.1H12.9924L13.6074 27.425C13.6724 27.565 13.7274 27.71 13.7824 27.855C13.8324 27.705 13.8874 27.575 13.9524 27.425L14.5124 26.1H15.4624ZM17.5494 26.1H18.8294C19.7544 26.1 20.2544 26.51 20.2544 27.385C20.2544 28.345 19.6244 28.765 18.7344 28.765H18.4244V30H17.5494V26.1ZM18.4244 28.115H18.7844C19.1044 28.115 19.3294 27.915 19.3294 27.435C19.3294 26.965 19.1044 26.75 18.7844 26.75H18.4244V28.115ZM22.9261 26.1L23.9261 30H23.0011L22.7761 29.085H21.5811L21.3611 30H20.5061L21.5011 26.1H22.9261ZM22.6061 28.385L22.3061 27.15C22.2611 26.975 22.2211 26.795 22.1961 26.615H22.1711C22.1411 26.795 22.1011 26.975 22.0561 27.15L21.7511 28.385H22.6061ZM25.9827 27.865H27.5927C27.6077 28.015 27.6127 28.14 27.6127 28.29C27.6127 29.41 27.0677 30.055 26.0627 30.055C24.9527 30.055 24.3777 29.375 24.3777 28.05C24.3777 26.815 25.0077 26.05 26.0177 26.05C26.8327 26.05 27.3627 26.49 27.5027 27.285L26.5727 27.495C26.5277 26.95 26.3477 26.7 26.0027 26.7C25.5677 26.7 25.3277 27.165 25.3277 28.015C25.3277 28.96 25.5877 29.43 26.1027 29.43C26.4977 29.43 26.6927 29.125 26.6977 28.49H25.9827V27.865ZM29.3605 29.325H30.8505V30H28.4605V26.1H30.8055V26.775H29.3605V27.7H30.6605V28.35H29.3605V29.325Z" fill="#2EA7E0"/>
<path d="M24.1923 10.9608C24.1923 14.253 21.6436 16.9216 18.4999 16.9216C15.3562 16.9216 12.8074 14.2527 12.8074 10.9608C12.8074 7.66891 15.3562 5 18.4999 5C21.6436 5 24.1923 7.66891 24.1923 10.9608ZM27.5 25V24.5031C27.5 20.592 25.1417 17.4218 22.2326 17.4218H14.7674C11.8583 17.4218 9.5 20.5923 9.5 24.5031V25H27.5Z" fill="#2EA7E0"/>
</svg>
