<svg width="31" height="73" viewBox="0 0 31 73" fill="none" xmlns="http://www.w3.org/2000/svg">
<path d="M19.5 1L19.5 72" stroke="#E73118" stroke-linecap="round"/>
<path d="M30.2 61.5L19.5934 72.1066" stroke="#E73118" stroke-linecap="round"/>
<path d="M8.35 10.3L8.58 12.14C7.7 12.27 7.22 12.67 7.22 13.5C7.22 13.97 7.46 14.32 7.96 14.32C8.52 14.32 8.74 13.98 9.17 12.75C9.67 11.33 10.36 10.6 11.55 10.6C13.02 10.6 13.9 11.64 13.9 13.22C13.9 14.82 13.1 15.8 11.61 16.02L11.24 14.24C12.18 14.17 12.67 13.8 12.67 13.14C12.67 12.63 12.35 12.35 11.87 12.35C11.34 12.35 11.06 12.72 10.7 13.84C10.17 15.5 9.55 16.2 8.27 16.2C6.82 16.2 5.89 15.15 5.89 13.39C5.89 11.55 6.72 10.51 8.35 10.3ZM8.74 21.8439L8.5 23.7639C6.73 23.3339 5.9 22.3739 5.9 20.7739C5.9 18.5539 7.25 17.4039 9.9 17.4039C12.37 17.4039 13.9 18.6639 13.9 20.6839C13.9 22.3139 13.02 23.3739 11.43 23.6539L11.01 21.7939C12.11 21.6939 12.6 21.3139 12.6 20.5839C12.6 19.7739 11.66 19.3039 9.97 19.3039C8.35 19.3039 7.2 19.8239 7.2 20.6439C7.2 21.3439 7.64 21.6839 8.74 21.8439ZM6 31.1256L6 29.0356L8.85 27.8656L8.85 27.1156L6 27.1156L6 25.3156L13.8 25.3156L13.8 27.9456C13.8 29.5556 13.07 30.6956 11.51 30.6956C10.4 30.6956 9.75 30.2156 9.42 29.4456L6 31.1256ZM12.5 27.1156L10.18 27.1156L10.18 27.7556C10.18 28.4656 10.49 28.8956 11.32 28.8956C12.12 28.8956 12.5 28.4656 12.5 27.7556L12.5 27.1156ZM13.9 35.2981C13.9 37.2481 12.7 38.6181 9.9 38.6181C7.1 38.6181 5.9 37.2481 5.9 35.2981C5.9 33.3481 7.1 31.9781 9.9 31.9781C12.7 31.9781 13.9 33.3481 13.9 35.2981ZM7.2 35.2981C7.2 36.1781 7.92 36.6681 9.9 36.6681C11.88 36.6681 12.6 36.1781 12.6 35.2981C12.6 34.4181 11.88 33.9281 9.9 33.9281C7.92 33.9281 7.2 34.4181 7.2 35.2981ZM7.4 42.1695L7.4 45.1495L6 45.1495L6 40.3195L13.8 40.3195L13.8 42.1695L7.4 42.1695ZM7.4 48.4996L7.4 51.4796L6 51.4796L6 46.6496L13.8 46.6496L13.8 48.4996L7.4 48.4996Z" fill="#E73118"/>
</svg>
